<?xml version="1.0" encoding="utf-8"?>
<!-- Generator: Adobe Illustrator 27.8.1, SVG Export Plug-In . SVG Version: 6.00 Build 0)  -->
<svg version="1.1" id="Layer_1" xmlns="http://www.w3.org/2000/svg" xmlns:xlink="http://www.w3.org/1999/xlink" x="0px" y="0px"
	 viewBox="0 0 500 500" style="enable-background:new 0 0 500 500;" xml:space="preserve">
<style type="text/css">
	.st0{stroke:#000000;stroke-miterlimit:10;}
	.st1{fill:#FFFFFF;stroke:#000000;stroke-miterlimit:10;}
</style>
<g>
	<g>
		<rect x="154.3" y="190.3" class="st0" width="202.3" height="48.2"/>
		<path class="st0" d="M278.3,366.3h-45.6c-6.6,0-12-5.4-12-12V218.8c0-6.6,5.4-12,12-12h45.6c6.6,0,12,5.4,12,12v135.5
			C290.3,360.9,284.9,366.3,278.3,366.3z"/>
	</g>
	<path class="st1" d="M338.4,190.3c0,0-10.4,0-25.9,0c-7.8,0-16.8,0.2-26.5,0c-4.9-3.6-9.9-3.4-15-2.4c-5.1-5.9-10.3,8-15.5,2.4
		c-5.2-9.3-10.4-1.5-15.5-0.7c-5.1,0.2-10.1-2.3-15,0.7c-4.9-7-9.5-1.2-14,0c-4.5,0-8.7,0-12.5,0c-15.5,0-25.9,0-25.9,0
		s0-4.1,0-10.7c0-3.3,0-7.6,0-12.1s0-9.3,0-13.4c0-2.3,0-13.9,0-18.8c0-9.7,0-8.2,0-11.7c0-13.8,0-23.9,0-14.1c0-10.1,0,1.9,0-11.5
		c0-12.3,0-27.3,0-12.9c0,14.6,0,8.7,0,2.2c0,3.6,2.6-5.4,7.1,0c1.1-13,2.4,1.7,3.8-5.4c1.4,0.7,2.8,3.7,4.4,2.3
		c1.6-10.7,3.3,0.2,5-2.3c1.8,4.9,3.6-11.9,5.6,5.5c1.9-6.2,4-8.9,6.1,0c1,14.5,2.1,15.6,3.2,9.1c1.1-0.4,2.2-3.3,3.3-9.1
		c1.1,4.2,2.2-5.2,3.4-8.6c1.1-18.6,2.3,13.5,3.5,8.6c0.6,21.3,1.2,8.5,1.8,10.1c0.6,13.6,1.2,5.5,1.8-7.7c0.6,7.7,1.2,10.1,1.8,4.7
		c0.6,0.6,1.2-13.5,1.8-7.1c1.3,2.5,3-19.4,5-6.2c1.9,11.8,4.1-12.7,6.3,5.5c2.2,3.2,4.5,7.5,6.8,1.7c2.2-2.4,4.4-0.4,6.4-0.2
		c1-3.2,1.9-3,2.8-1.4c0.9,4.2,1.7,8.5,2.4,7.8c0.7,3.1,1.4-2.5,2,5.9c0.6,2.3,1,9.2,1.4-7c1.4,7.3,0.9-12.3-2.6-6.1
		c3.9-11.8,7,0.9,9.5-1.2c1.3-3.8,2.4-4.5,3.5-4.1c1.1-13.2,2.1-1.2,3,6.9c1,8.7,1.9,15.8,2.9,4.5c1,2.9,2-1.2,3.2-8.4
		c2.3-10.8,4.9-18.4,8.3,2.3c-3.1,12.5-3.8-8.4-3.1,4.3c0.8-10.3,3.1-20.9,6.3-3.3c1.6,2.7,3.4,7,5.3-1.1c1.9-9.8,3.9-5.1,6,0.6
		c2.1-1.8,4.2,10.8,6.2,1.1c2,0.4,4,4,5.8-1.6c-1.2,4.5,2.4-16.6,6.8,0.2c2.2-11.1,4.6-13.8,6.8-9.7c2.2,4.2,4,18.1,5.2,9.5
		c4.5,0.7,7.1-8.8,7.1,0c0-1.8,0-14.9,0-6c0,0.5,0,1.7,0,16.7c0-2.1,0,7.4,0,16.3c0,25.7,0,22.8,0,9.2c0-0.8,0,21.4,0,20.9
		c0,7.5,0,13.2,0,9.6c0,20.4,0,22.6,0,25.5C338.4,186.1,338.4,190.3,338.4,190.3z"/>
</g>
</svg>
