<?xml version="1.0" encoding="utf-8"?>
<!-- Generator: Adobe Illustrator 27.8.1, SVG Export Plug-In . SVG Version: 6.00 Build 0)  -->
<svg version="1.1" id="Layer_1" xmlns="http://www.w3.org/2000/svg" xmlns:xlink="http://www.w3.org/1999/xlink" x="0px" y="0px"
	 viewBox="0 0 500 500" style="enable-background:new 0 0 500 500;" xml:space="preserve">
<style type="text/css">
	.st0{stroke:#000000;stroke-miterlimit:10;}
	.st1{fill:none;stroke:#000000;stroke-width:5;stroke-miterlimit:10;}
	.st2{fill:none;stroke:#000000;stroke-miterlimit:10;}
</style>
<g>
	<g>
		<path class="st0" d="M344.3,248.5c12.4,2.3,23.6-0.2,35.2-1.1l-44.8-63.7H245l-44.7,63.5C248.3,248.4,294.8,240.6,344.3,248.5z"/>
		<rect x="200.3" y="245.1" class="st0" width="158.1" height="4.3"/>
	</g>
	<rect x="332.4" y="183.7" class="st0" width="47.1" height="63.7"/>
</g>
<path class="st0" d="M367.5,325.9h-235c-6.6,0-12-5.4-12-12v-62.7c0-6.6,5.4-12,12-12h235c6.6,0,12,5.4,12,12v62.7
	C379.5,320.5,374.1,325.9,367.5,325.9z"/>
<line class="st1" x1="204.7" y1="239.2" x2="149.7" y2="139.4"/>
<line class="st2" x1="136.7" y1="239.2" x2="159.1" y2="162.2"/>
<circle class="st0" cx="173.1" cy="363.1" r="37.2"/>
</svg>
